PathFileType	4	(X/Y/Z)	C:/Users/opensim2020/Desktop/walking_exp_matlab/subject02_walking16_run.trc	
DataRate	CameraRate	NumFrames	NumMarkers	Units	OrigDataRate	OrigDataStartFrame	OrigNumFrames	
100.00	100.00	4	51	mm	100.00	184	124	
Frame#	Time	RTOE			LSHO			LELB			RELB			RFIN			LTHI			LKNE			RWRB			RUPA			LTIB			RASI			LANK			LTOE			RSHO			RWRA			RFRM			LASI			STRN			LFHD			RTHI			RFHD			LWRB			LFIN			LUPA			RKNE			RBHD			LFRM			C7			LWRA			RTIB			CLAV			LHEE			RANK			LBHD			RBAK			RHEE			T10			LPSI			RPSI			*39			*40			*41			*42			*43			*44			*45			*46			*47			*48			*49			*50			
		X1	Y1	Z1	X2	Y2	Z2	X3	Y3	Z3	X4	Y4	Z4	X5	Y5	Z5	X6	Y6	Z6	X7	Y7	Z7	X8	Y8	Z8	X9	Y9	Z9	X10	Y10	Z10	X11	Y11	Z11	X12	Y12	Z12	X13	Y13	Z13	X14	Y14	Z14	X15	Y15	Z15	X16	Y16	Z16	X17	Y17	Z17	X18	Y18	Z18	X19	Y19	Z19	X20	Y20	Z20	X21	Y21	Z21	X22	Y22	Z22	X23	Y23	Z23	X24	Y24	Z24	X25	Y25	Z25	X26	Y26	Z26	X27	Y27	Z27	X28	Y28	Z28	X29	Y29	Z29	X30	Y30	Z30	X31	Y31	Z31	X32	Y32	Z32	X33	Y33	Z33	X34	Y34	Z34	X35	Y35	Z35	X36	Y36	Z36	X37	Y37	Z37	X38	Y38	Z38	X39	Y39	Z39	X40	Y40	Z40	X41	Y41	Z41	X42	Y42	Z42	X43	Y43	Z43	X44	Y44	Z44	X45	Y45	Z45	X46	Y46	Z46	X47	Y47	Z47	X48	Y48	Z48	X49	Y49	Z49	X50	Y50	Z50	X51	Y51	Z51	

32	0.310	142.54515	-1423.78088	141.30312	-208.69080	-1009.97968	1446.57458	-349.50803	-1096.43628	1135.01208	320.65063	-1091.09595	1213.10620	173.42479	-876.44232	1061.51404	-169.36436	-1028.65283	674.84381	-119.85336	-1002.62061	480.30219	205.09996	-934.49561	1049.31677	269.43707	-1068.28662	1349.47681	-109.87013	-1069.08899	297.75116	121.24702	-1022.23810	979.44128	-57.36155	-1071.88245	71.12759	-46.62645	-914.56720	33.01678	149.06998	-984.48499	1486.22461	170.15164	-933.83691	1094.47522	267.07306	-1010.09454	1132.26123	-122.27795	-1028.33130	989.47540	-17.15306	-939.11530	1247.19958	-112.15041	-930.56091	1718.24854	204.93204	-1122.97778	658.62390	32.75924	-933.30353	1710.89941	-196.18117	-918.24890	1018.32166	-162.01169	-859.44684	1018.43713	-315.02502	-1078.57532	1270.93738	173.40114	-1138.35596	454.28189	23.52744	-1060.26111	1608.83777	-275.76611	-1005.65320	1058.84961	-32.01482	-1074.85474	1512.00867	-183.76857	-907.42072	1073.35657	156.31900	-1306.59790	379.80554	-42.48553	-952.54504	1423.97815	-9.52112	-1111.24390	46.06387	103.36198	-1466.89282	286.36835	-118.83807	-1044.90564	1620.33862	62.01530	-1160.69617	1378.95935	36.93059	-1520.49780	270.59735	7.70572	-1190.06323	1280.75769	-47.48161	-1220.52112	1066.60925	69.51078	-1220.76196	1073.99817				-3357.35669	2845.80688	1034.85522																									-31.53662	-1046.80920	1769.30225			 
33	0.320	152.31454	-1351.63855	135.93565	-211.16817	-973.18665	1437.86792	-332.50909	-1039.35596	1112.70398	320.17844	-1066.27124	1214.70093	190.79492	-863.01337	1038.36328	-169.64897	-1002.05585	666.45856	-116.58752	-987.04620	468.90662	218.63074	-922.56451	1030.91907	267.44009	-1037.80933	1348.76685	-105.43266	-1054.19141	287.24301	120.21347	-984.40662	973.79089	-51.89366	-1063.42310	63.09233	-51.97990	-909.07190	29.98718	147.11021	-948.11578	1481.41858	182.20244	-916.55975	1074.80396	272.70023	-991.66046	1123.66113	-125.60750	-991.84857	983.91803	-16.92443	-902.46686	1239.61194	-111.23524	-893.41339	1713.48914	207.74783	-1067.66431	650.79175	33.81184	-896.54712	1705.27136	-164.90022	-853.60309	1032.88635	-129.09151	-796.54840	1043.63257	-308.01630	-1033.17639	1252.20959	178.36130	-1072.93652	449.14023	23.55885	-1023.44427	1603.16492	-250.39697	-943.51202	1055.54626	-34.48186	-1039.10828	1505.93994	-157.53706	-849.92407	1090.09875	163.36729	-1239.23193	373.11624	-42.94115	-916.23993	1417.43604	-2.64301	-1107.90039	40.85639	112.02976	-1399.15540	278.37277	-118.71664	-1007.80798	1615.54224	58.57248	-1126.18066	1374.31042	46.17332	-1453.98169	261.10416	4.73459	-1153.44312	1274.29089	-45.33553	-1184.70801	1058.38550	71.21919	-1183.44653	1065.83081				-3360.35498	2845.32349	1034.53430																									-30.09996	-1009.91345	1763.83362			 
34	0.330	161.89926	-1276.19006	129.33586	-213.51283	-936.13074	1429.78625	-314.54126	-978.14728	1094.03882	321.18823	-1041.70630	1216.73218	207.63005	-851.58765	1020.01691	-167.55751	-982.18329	658.42963	-112.01957	-971.97296	457.58994	232.85997	-912.04431	1016.92096	265.69891	-1007.84363	1348.37683	-100.70361	-1034.56824	274.73312	119.80447	-946.32111	966.60950	-47.67920	-1064.92383	62.64539	-48.75576	-910.46527	30.08038	145.30849	-912.92932	1476.91162	195.17715	-901.23645	1059.33557	280.21420	-973.70648	1116.80676	-128.95947	-957.90277	976.56775	-16.68460	-865.62695	1231.35071	-110.18435	-856.10876	1709.06946	210.15155	-1011.07556	643.80743	34.81658	-859.41687	1699.86414	-136.50354	-790.34235	1053.68677	-98.89108	-736.58521	1074.29822	-300.85336	-985.20477	1234.78381	182.85756	-1007.05786	445.93008	23.61696	-986.70770	1597.95789	-224.79108	-879.45636	1057.28955	-36.84903	-1003.59161	1499.27515	-133.43822	-794.50745	1110.91235	170.42467	-1170.83716	366.70358	-43.50647	-879.36554	1410.46863	1.13877	-1108.34863	41.19655	120.75890	-1329.49878	268.87103	-118.52781	-970.75970	1611.27295	54.84822	-1090.03162	1367.63257	55.68893	-1384.94739	249.18045	1.86169	-1116.69751	1266.38721	-43.07011	-1149.29614	1049.48755	73.08596	-1146.55847	1056.21680				-3360.35938	2845.32275	1034.30383																									-28.65106	-972.70135	1759.04980			 
35	0.340	170.52380	-1196.74146	121.79800	-215.80608	-899.25708	1423.35767	-295.26697	-913.38751	1080.68250	323.48849	-1019.12158	1220.41772	223.57640	-839.91998	1008.53180	-162.26997	-960.35773	648.37628	-108.00114	-950.42828	450.14020	246.51402	-901.00165	1009.18219	264.81625	-978.41632	1349.52551	-100.07643	-1018.19104	276.53284	118.30839	-908.80334	957.87762	-47.55054	-1063.80530	65.88491	-48.17303	-909.00189	29.93407	144.10672	-879.32184	1473.45654	206.98770	-886.47723	1049.30054	288.60648	-957.52905	1113.26514	-130.82106	-925.86310	968.07605	-16.42714	-828.56995	1223.03381	-108.71951	-818.50409	1705.75354	211.82628	-952.91650	643.24683	36.35049	-822.49902	1695.32080	-109.98079	-729.87158	1078.71204	-71.95393	-680.93323	1108.95886	-292.64218	-934.33936	1220.67224	186.03668	-942.04828	445.85278	23.62759	-949.92773	1593.82617	-200.54785	-815.07446	1063.97437	-38.92890	-968.17358	1493.02649	-111.36063	-741.48218	1135.05176	176.97890	-1101.89722	361.19531	-44.37576	-841.66046	1403.91797	1.14962	-1107.49072	42.59919	129.82956	-1257.90234	257.82535	-118.39451	-933.61902	1608.36340	50.13346	-1055.55969	1360.79321	66.08097	-1313.93054	235.23732	-0.73680	-1079.91516	1257.33337	-41.11235	-1114.73145	1040.24341	75.03648	-1110.33594	1045.55298				-3357.30664	2845.92993	1034.27612																									-27.09867	-935.28333	1755.42053			 
